<?xml version="1.0" standalone="no"?><svg xmlns="http://www.w3.org/2000/svg" viewBox="0 0 1440 320"><path fill="#00cba9" fill-opacity="1" d="M0,224L24,213.3C48,203,96,181,144,197.3C192,213,240,267,288,250.7C336,235,384,149,432,128C480,107,528,149,576,165.3C624,181,672,171,720,154.7C768,139,816,117,864,117.3C912,117,960,139,1008,128C1056,117,1104,75,1152,58.7C1200,43,1248,53,1296,64C1344,75,1392,85,1416,90.7L1440,96L1440,320L1416,320C1392,320,1344,320,1296,320C1248,320,1200,320,1152,320C1104,320,1056,320,1008,320C960,320,912,320,864,320C816,320,768,320,720,320C672,320,624,320,576,320C528,320,480,320,432,320C384,320,336,320,288,320C240,320,192,320,144,320C96,320,48,320,24,320L0,320Z"></path></svg>